<svg xmlns="http://www.w3.org/2000/svg" viewBox="0 0 200 600" fill="none">
  <!-- Pencil body -->
  <path d="M50 50 L150 50 L150 550 L50 550 Z" fill="#FFD700" />
  
  <!-- Pencil tip -->
  <path d="M50 550 L100 600 L150 550 Z" fill="#FF6347" />
  
  <!-- Pencil eraser -->
  <rect x="50" y="20" width="100" height="30" rx="5" fill="#FF69B4" />
  
  <!-- Pencil band -->
  <rect x="50" y="50" width="100" height="20" fill="#FF6347" />
  
  <!-- Pencil lines -->
  <line x1="70" y1="100" x2="130" y2="100" stroke="#333" stroke-width="2" />
  <line x1="70" y1="130" x2="130" y2="130" stroke="#333" stroke-width="2" />
  <line x1="70" y1="160" x2="130" y2="160" stroke="#333" stroke-width="2" />
  <line x1="70" y1="190" x2="130" y2="190" stroke="#333" stroke-width="2" />
  <line x1="70" y1="220" x2="130" y2="220" stroke="#333" stroke-width="2" />
  <line x1="70" y1="250" x2="130" y2="250" stroke="#333" stroke-width="2" />
  <line x1="70" y1="280" x2="130" y2="280" stroke="#333" stroke-width="2" />
  <line x1="70" y1="310" x2="130" y2="310" stroke="#333" stroke-width="2" />
  <line x1="70" y1="340" x2="130" y2="340" stroke="#333" stroke-width="2" />
  <line x1="70" y1="370" x2="130" y2="370" stroke="#333" stroke-width="2" />
  <line x1="70" y1="400" x2="130" y2="400" stroke="#333" stroke-width="2" />
  <line x1="70" y1="430" x2="130" y2="430" stroke="#333" stroke-width="2" />
  <line x1="70" y1="460" x2="130" y2="460" stroke="#333" stroke-width="2" />
  <line x1="70" y1="490" x2="130" y2="490" stroke="#333" stroke-width="2" />
  <line x1="70" y1="520" x2="130" y2="520" stroke="#333" stroke-width="2" />
</svg> 